# xmcd
#
# Track frame offsets:
#	150
#	22760
#	47695
#	70635
#
# Disc length: 1229 seconds
#
# Revision: 2
# Processed by: cddbd v1.5.2PL0 Copyright (c) Steve Scherf et al.
# Submitted via: EasyCDDAExtractor 8.2.1.1
#
DISCID=2404cb04
DTITLE=Mariah Carey - Honey US promo
DYEAR=1900
DGENRE=Blues
TTITLE0=Honey (Album Version)
TTITLE1=Honey (Bad Boy remix)
TTITLE2=Honey (Smooth Version with Intro)
TTITLE3=Honey (Smooth Version without Intro)
EXTD=
EXTT0=
EXTT1=
EXTT2=
EXTT3=
PLAYORDER=
